<?xml version="1.0" standalone="no"?>
<!DOCTYPE svg PUBLIC "-//W3C//DTD SVG 20010904//EN"
 "http://www.w3.org/TR/2001/REC-SVG-20010904/DTD/svg10.dtd">
<svg version="1.0" xmlns="http://www.w3.org/2000/svg"
 width="270.000000pt" height="187.000000pt" viewBox="0 0 270.000000 187.000000"
 preserveAspectRatio="xMidYMid meet">

<g transform="translate(0.000000,187.000000) scale(0.100000,-0.100000)"
fill="#000000" stroke="none">
<path d="M1115 1223 c-82 -30 -181 -66 -220 -79 -126 -45 -115 -35 -115 -111
l0 -67 -21 23 c-23 25 -43 24 -139 -4 -25 -7 -67 -18 -95 -24 -27 -7 -52 -17
-56 -22 -12 -21 -20 -186 -9 -213 5 -15 10 -47 10 -70 0 -40 2 -44 40 -61 30
-14 51 -16 92 -11 29 4 80 7 114 6 78 -1 99 17 64 55 -34 37 -12 30 40 -11 45
-36 45 -36 124 -31 43 3 83 10 89 16 7 7 16 7 30 0 12 -7 49 -8 99 -4 62 6 82
11 91 26 15 24 24 24 32 -1 6 -18 15 -20 86 -20 56 0 79 4 79 13 0 6 5 4 11
-5 14 -25 150 -26 170 -2 12 14 14 14 20 -4 6 -16 21 -20 99 -26 75 -6 97 -4
116 9 29 19 34 19 34 1 0 -16 62 -26 161 -26 77 0 111 12 129 45 7 13 23 28
36 34 21 9 24 17 24 69 0 44 -5 63 -18 75 -20 18 -231 81 -240 72 -3 -2 -10
-1 -16 4 -6 4 -34 16 -63 26 l-52 19 -3 74 -3 74 -90 34 c-49 19 -115 43 -145
54 -30 10 -115 42 -189 70 -74 27 -141 49 -150 49 -9 -1 -83 -26 -166 -56z
m173 -35 c4 -82 -9 -118 -42 -118 -13 0 -27 6 -29 13 -3 7 -6 5 -6 -5 -1 -10
-5 -18 -11 -18 -18 0 -25 -2 -42 -11 -17 -9 -18 -2 -18 80 l0 89 31 7 c22 5
34 3 40 -6 7 -11 9 -10 9 4 0 17 35 38 55 33 6 -1 11 -32 13 -68z m62 57 c17
-9 30 -21 30 -28 0 -9 2 -9 8 1 5 7 15 10 23 7 19 -7 21 -175 2 -175 -7 0 -17
8 -22 18 -6 9 -11 11 -11 5 0 -23 -30 -14 -30 9 0 21 -1 21 -13 3 -26 -34 -37
-8 -37 86 0 55 4 89 10 89 6 0 24 -7 40 -15z m-220 -54 c0 -10 -7 -21 -15 -25
-8 -3 -15 -10 -15 -16 0 -5 7 -10 15 -10 8 0 15 -9 15 -20 0 -11 -7 -20 -15
-20 -8 0 -15 -4 -15 -10 0 -5 7 -10 15 -10 21 0 19 -40 -2 -42 -32 -2 -38 -3
-48 -9 -5 -4 -22 -9 -37 -13 l-28 -6 0 79 c0 77 0 79 28 87 15 4 32 8 37 8 6
1 16 7 23 14 20 18 42 15 42 -7z m355 7 c24 -11 25 -15 25 -90 0 -63 -3 -78
-15 -78 -9 0 -15 10 -16 23 -1 16 -2 18 -6 5 -2 -10 -11 -18 -19 -18 -11 0
-14 18 -14 85 0 47 4 85 10 85 5 0 21 -5 35 -12z m76 -28 c16 -9 19 -22 19
-87 0 -73 -1 -75 -22 -69 -13 3 -26 6 -30 6 -13 0 -9 160 3 160 6 0 19 -5 30
-10z m-600 -114 c-5 -12 -11 -30 -13 -40 -4 -26 -28 -33 -28 -8 0 11 -3 29 -7
39 -6 14 -9 8 -13 -21 -7 -53 -30 -60 -31 -9 -2 33 -3 34 -6 8 -7 -53 -16 -63
-23 -25 l-7 35 -2 -31 c0 -18 -8 -34 -16 -38 -12 -4 -15 6 -15 63 0 56 3 70
17 76 10 3 19 1 21 -4 5 -16 22 -13 22 3 0 17 5 21 42 30 25 6 27 4 31 -31 l4
-38 1 42 c3 56 26 63 30 9 2 -22 -1 -49 -7 -60z m676 78 c3 -9 0 -20 -8 -26
-11 -7 -11 -11 -1 -15 6 -2 12 -13 12 -23 0 -10 -6 -21 -12 -24 -10 -5 -10 -7
0 -12 22 -10 14 -36 -10 -32 -21 3 -23 9 -26 76 -3 67 -1 72 18 72 11 0 23 -7
27 -16z m54 -25 c8 -16 13 -18 19 -9 4 7 15 10 24 7 12 -5 16 -21 16 -72 0
-36 -3 -65 -7 -65 -38 1 -53 14 -55 49 l-1 36 -4 -32 c-3 -20 -10 -33 -19 -33
-11 0 -14 16 -14 70 0 55 3 70 15 70 8 0 19 -10 26 -21z m89 -84 c0 -37 -4
-65 -10 -65 -6 0 -10 28 -10 65 0 37 4 65 10 65 6 0 10 -28 10 -65z m44 49
c12 -5 16 -21 16 -65 0 -33 -4 -59 -10 -59 -5 0 -10 6 -11 13 0 9 -2 9 -6 -1
-11 -27 -23 3 -23 59 0 59 4 65 34 53z m-552 -44 c-4 -29 -4 -29 -34 -14 -28
15 -37 14 -112 -2 -44 -11 -89 -27 -99 -37 -13 -13 -22 -16 -29 -9 -10 10 -73
-2 -94 -19 -11 -9 -24 -2 -24 12 0 10 40 21 225 65 178 41 173 41 167 4z m258
-66 c22 -20 26 -33 28 -94 2 -38 1 -74 -2 -78 -3 -5 -19 -7 -36 -4 l-30 4 0
78 c0 50 -4 81 -12 88 -7 5 -48 18 -90 28 -87 20 -103 27 -94 42 10 16 207
-37 236 -64z m-292 20 c33 -23 29 -60 -8 -73 -24 -8 -30 -16 -30 -40 0 -20 9
-37 30 -54 36 -31 40 -75 10 -117 -18 -25 -28 -28 -96 -35 -70 -6 -77 -5 -100
16 -23 21 -24 29 -24 135 0 133 7 146 90 168 73 19 101 19 128 0z m350 7 c10
-6 10 -10 -1 -19 -11 -9 -18 -8 -32 8 -17 19 -17 20 1 20 10 0 25 -4 32 -9z
m-862 -58 c-1 -42 -4 -48 -23 -51 -19 -3 -21 -8 -16 -33 4 -22 2 -29 -10 -29
-10 0 -13 -6 -10 -21 4 -12 0 -25 -8 -30 -11 -6 -8 -9 9 -9 26 0 30 -27 6 -44
-14 -11 -11 -15 20 -37 20 -13 36 -27 36 -31 0 -14 -60 -8 -84 7 -21 14 -24
13 -41 -5 -18 -20 -55 -28 -55 -12 0 5 11 19 25 32 32 30 32 39 -1 37 -39 -3
-40 20 -2 38 31 14 31 15 5 10 -23 -5 -28 -3 -25 12 2 9 14 20 28 24 l25 7
-27 1 c-29 1 -36 19 -16 39 9 9 9 12 0 12 -7 0 -12 9 -12 20 0 11 6 20 14 20
8 0 18 5 21 10 4 6 -3 9 -17 7 -17 -3 -24 -11 -25 -33 -1 -16 -5 -77 -9 -136
-5 -94 -8 -108 -24 -108 -15 0 -18 14 -24 99 -8 110 0 201 18 201 6 0 22 3 35
7 14 3 22 2 18 -3 -3 -5 3 -10 14 -10 10 0 19 6 19 12 0 6 9 14 20 17 16 4 20
0 21 -21 1 -26 2 -26 8 3 5 24 12 30 33 30 15 1 30 4 34 8 16 15 21 5 20 -40z
m922 21 c12 -4 22 -14 22 -24 0 -12 11 -20 35 -24 19 -4 39 -15 44 -24 5 -9 9
-65 10 -124 l1 -108 -36 0 -36 0 3 110 c3 77 0 113 -9 122 -9 9 -12 -7 -12
-78 0 -86 -1 -92 -28 -117 -24 -23 -36 -27 -90 -27 l-62 0 6 28 c10 41 12 42
59 42 51 0 55 6 55 100 0 65 -1 68 -26 74 -30 8 -27 32 4 28 15 -2 22 2 22 12
0 18 4 19 38 10z m117 -4 c17 0 17 -2 5 -14 -19 -18 -70 -10 -70 11 0 11 6 14
23 9 12 -3 31 -6 42 -6z m-797 -41 c-14 -41 -19 -45 -69 -53 l-39 -6 0 -66 0
-66 65 7 65 7 0 -35 0 -35 -75 -7 c-111 -11 -115 -6 -115 152 0 67 3 123 8
123 4 0 17 3 30 6 19 5 22 2 22 -20 0 -33 23 -34 53 -2 18 20 54 37 65 31 1
-1 -3 -17 -10 -36z m480 21 c18 0 17 -202 -2 -238 -13 -26 -16 -27 -77 -22
l-64 5 -3 37 c-3 37 -3 37 40 40 l43 3 3 94 c3 91 3 93 25 87 12 -3 28 -6 35
-6z m-104 -6 c12 -5 16 -21 16 -75 0 -62 -2 -69 -20 -69 -17 0 -20 7 -20 53 0
28 -3 62 -6 75 -6 23 2 27 30 16z m-44 -59 c0 -43 -1 -45 -28 -45 -35 0 -52
16 -52 51 0 28 11 35 58 38 20 1 22 -4 22 -44z m541 33 c35 -10 39 -14 39 -44
0 -32 -1 -33 -32 -27 -45 8 -58 20 -58 54 0 33 0 33 51 17z m-1067 -32 c-3 -8
-1 -17 5 -21 12 -7 14 -47 5 -94 -5 -21 -12 -31 -25 -31 -23 0 -23 4 -3 40 19
31 12 80 -11 80 -17 0 -35 -30 -35 -57 1 -14 4 -13 15 7 l14 25 0 -30 c-1 -73
-37 -80 -45 -9 -7 61 18 95 78 103 4 1 5 -5 2 -13z m1176 -27 c0 -24 -3 -30
-16 -25 -9 3 -18 6 -20 6 -2 0 -4 11 -4 25 0 18 5 25 20 25 16 0 20 -7 20 -31z
m-942 -22 c3 -31 0 -37 -17 -37 -36 0 -51 12 -51 40 0 22 5 30 23 33 36 7 42
2 45 -36z m1031 27 c38 -8 41 -25 4 -23 -16 1 -35 -1 -44 -5 -18 -8 -34 8 -24
24 7 12 21 12 64 4z m159 -50 c17 -12 22 -24 22 -59 0 -33 -4 -45 -14 -45 -11
0 -16 14 -18 47 -3 46 -3 46 -50 60 -27 7 -48 16 -48 19 0 10 84 -7 108 -22z
m-248 -3 c-1 -24 -15 -51 -26 -51 -9 0 -14 -11 -14 -30 0 -53 -45 -80 -106
-64 -32 8 -20 52 15 56 18 2 27 10 29 24 3 18 -4 22 -37 28 -32 5 -41 11 -41
27 0 20 11 21 96 4 12 -3 27 1 33 9 11 13 51 11 51 -3z m-1016 -26 c3 -9 0
-15 -9 -15 -8 0 -15 7 -15 15 0 8 4 15 9 15 5 0 11 -7 15 -15z m1135 -1 c2 -2
1 -9 -2 -17 -8 -20 -91 -8 -95 14 -3 14 4 16 45 11 26 -2 50 -6 52 -8z m103
-45 c10 -77 4 -89 -43 -89 -32 0 -39 4 -39 19 0 13 8 21 23 23 19 3 22 10 25
56 4 70 25 64 34 -9z m-92 -49 c0 -31 -26 -43 -75 -36 -38 6 -45 11 -45 29 0
20 5 22 60 23 50 1 60 -2 60 -16z"/>
<path d="M1342 1175 c0 -16 2 -22 5 -12 2 9 2 23 0 30 -3 6 -5 -1 -5 -18z"/>
<path d="M1472 1135 c0 -16 2 -22 5 -12 2 9 2 23 0 30 -3 6 -5 -1 -5 -18z"/>
<path d="M1543 1100 c0 -25 2 -35 4 -22 2 12 2 32 0 45 -2 12 -4 2 -4 -23z"/>
<path d="M1711 1024 c0 -11 3 -14 6 -6 3 7 2 16 -1 19 -3 4 -6 -2 -5 -13z"/>
<path d="M1811 1024 c0 -11 3 -14 6 -6 3 7 2 16 -1 19 -3 4 -6 -2 -5 -13z"/>
<path d="M1103 953 c-9 -3 -13 -34 -13 -104 l0 -100 38 3 37 3 3 103 3 102
-28 -1 c-15 0 -34 -3 -40 -6z m47 -117 c0 -30 -4 -58 -10 -61 -6 -4 -10 17
-10 54 0 34 4 61 10 61 6 0 10 -24 10 -54z"/>
<path d="M685 940 c-4 -6 3 -10 14 -10 25 0 27 6 6 13 -8 4 -17 2 -20 -3z"/>
<path d="M625 860 c-3 -5 -1 -10 4 -10 6 0 11 5 11 10 0 6 -2 10 -4 10 -3 0
-8 -4 -11 -10z"/>
</g>
</svg>
