<?xml version="1.0" standalone="no"?>
<!DOCTYPE svg PUBLIC "-//W3C//DTD SVG 20010904//EN"
 "http://www.w3.org/TR/2001/REC-SVG-20010904/DTD/svg10.dtd">
<svg version="1.0" xmlns="http://www.w3.org/2000/svg"
 width="920.000000pt" height="969.000000pt" viewBox="0 0 920.000000 969.000000"
 preserveAspectRatio="xMidYMid meet">

<g transform="translate(0.000000,969.000000) scale(0.100000,-0.100000)"
fill="#000000" stroke="none">
<path d="M4455 9353 c-77 -131 -184 -313 -238 -405 -54 -93 -96 -172 -93 -177
8 -13 238 -67 388 -91 231 -37 638 -55 638 -29 0 6 -60 113 -133 238 -73 124
-196 333 -272 464 -77 130 -142 237 -145 237 -3 0 -69 -107 -145 -237z"/>
<path d="M3497 8803 c-29 -65 -38 -131 -28 -187 41 -222 222 -407 488 -498
233 -81 565 -78 820 7 166 55 270 114 371 209 45 43 122 135 122 147 0 2 -125
4 -278 4 -295 1 -389 10 -642 61 -241 50 -495 135 -729 245 -57 27 -105 49
-106 49 -1 0 -9 -17 -18 -37z"/>
<path d="M5263 8242 c-45 -42 -111 -95 -147 -117 -36 -22 -65 -44 -66 -48 0
-4 44 -83 99 -175 54 -92 212 -360 351 -597 138 -236 308 -525 376 -641 l124
-211 83 -22 c161 -43 344 -131 470 -227 31 -24 59 -44 62 -44 2 0 -22 44 -54
98 -32 53 -113 192 -181 307 -68 116 -151 257 -185 315 -34 58 -149 254 -255
435 -468 799 -569 971 -582 987 -12 15 -21 10 -95 -60z"/>
<path d="M3512 8123 c58 -67 67 -166 21 -242 -31 -51 -113 -101 -167 -101 -28
0 -26 -2 30 -36 82 -49 137 -106 179 -184 94 -180 84 -392 -26 -576 -42 -70
-193 -229 -553 -584 -379 -374 -412 -409 -480 -503 -227 -316 -261 -678 -98
-1057 52 -124 163 -318 647 -1140 89 -151 217 -369 285 -485 68 -115 200 -340
295 -500 94 -159 245 -415 335 -567 l164 -278 183 0 c101 0 183 2 183 5 0 3
-28 52 -62 108 -110 182 -195 388 -234 567 -15 66 -19 125 -18 260 0 158 3
185 27 275 39 144 113 285 210 401 144 173 290 268 492 320 236 61 485 1 749
-179 175 -120 333 -306 375 -441 30 -98 44 -217 39 -341 -5 -135 -7 -135 107
-21 170 168 266 382 281 625 23 361 -184 710 -521 877 -108 53 -202 80 -355
101 l-55 8 70 23 c376 125 801 -52 980 -408 63 -124 80 -199 80 -350 0 -74 -4
-155 -8 -180 l-8 -45 26 40 c104 161 155 333 162 545 6 166 -14 292 -68 430
-65 169 -210 360 -360 476 -116 89 -299 172 -454 204 -68 15 -290 19 -380 7
l-60 -7 30 20 c49 34 155 86 235 115 320 115 694 62 975 -140 84 -60 196 -176
256 -265 28 -41 53 -77 56 -80 13 -12 -8 263 -26 340 -60 261 -190 504 -374
696 -156 163 -310 269 -502 343 -171 66 -317 91 -535 91 -255 1 -501 -61 -740
-186 -379 -197 -628 -512 -720 -908 -10 -45 -22 -107 -26 -138 -3 -32 -10 -58
-15 -58 -5 0 -31 10 -57 22 -100 47 -188 176 -219 322 -11 53 -14 110 -10 226
5 155 13 208 71 453 44 184 146 665 173 817 23 125 27 174 27 355 1 185 -2
220 -22 298 -81 321 -247 517 -522 618 -69 25 -81 27 -68 12z"/>
<path d="M3345 7438 c-103 -139 -272 -276 -457 -369 -77 -39 -77 -39 -71 -71
22 -118 117 -188 236 -175 144 17 332 182 397 346 28 71 36 164 20 232 -12 53
-45 119 -58 119 -4 0 -34 -37 -67 -82z"/>
<path d="M2010 5183 c-74 -126 -168 -286 -210 -358 -42 -71 -125 -213 -185
-315 -60 -102 -143 -243 -185 -315 -43 -71 -171 -290 -285 -485 -115 -195
-281 -479 -370 -630 -89 -151 -218 -372 -287 -490 -69 -118 -187 -318 -261
-445 l-136 -230 959 -3 c528 -1 1392 -1 1920 0 l959 3 -112 190 -113 190
-1467 3 c-807 1 -1467 4 -1467 6 0 3 42 76 93 163 110 186 226 382 649 1103
173 294 393 668 488 830 95 162 191 326 213 363 l38 69 -35 110 c-44 135 -65
251 -68 375 -1 51 -3 93 -4 93 -1 0 -61 -102 -134 -227z"/>
<path d="M7215 4907 c0 -204 -3 -245 -23 -343 l-23 -111 39 -64 c21 -35 103
-174 182 -309 79 -135 216 -369 305 -520 89 -151 255 -435 370 -630 114 -195
243 -415 287 -488 43 -73 78 -135 78 -138 0 -2 -889 -4 -1975 -4 -1608 0
-1975 -2 -1975 -13 0 -20 114 -245 159 -314 l41 -63 2215 0 2216 0 -12 23 c-7
12 -31 54 -54 92 -23 39 -113 192 -200 340 -146 249 -250 427 -480 820 -49 83
-116 197 -150 255 -34 58 -117 200 -185 315 -68 116 -138 235 -155 265 -17 30
-103 177 -190 325 -87 149 -226 385 -308 525 -82 140 -152 258 -156 262 -3 4
-6 -97 -6 -225z"/>
<path d="M100 1095 l0 -675 130 0 130 0 0 675 0 675 -130 0 -130 0 0 -675z"/>
<path d="M8233 1663 l2 -108 130 0 130 0 2 108 1 107 -133 0 -134 0 2 -107z"/>
<path d="M8829 1743 c-80 -41 -112 -99 -119 -212 l-5 -86 -56 -3 -56 -3 -6
-97 c-2 -53 -3 -100 0 -104 2 -5 29 -8 59 -8 l54 0 0 -405 0 -405 130 0 130 0
0 405 0 404 63 3 62 3 3 102 3 102 -63 3 -63 3 3 50 c3 62 20 77 82 73 l45 -2
3 95 3 96 -38 7 c-21 3 -70 6 -109 6 -57 0 -81 -5 -125 -27z"/>
<path d="M7852 1661 l-133 -66 3 -517 3 -516 30 -44 c60 -85 145 -115 286
-103 l79 7 0 97 0 97 -49 0 c-29 -1 -56 5 -63 12 -10 10 -14 82 -16 307 l-3
294 68 3 68 3 3 103 3 102 -70 0 -70 0 -3 144 -3 143 -133 -66z"/>
<path d="M735 1446 c-148 -37 -226 -131 -255 -308 -14 -89 -12 -339 4 -430 17
-92 65 -187 115 -229 66 -54 132 -73 261 -73 97 0 124 4 174 24 117 45 202
161 213 291 l6 59 -147 0 -146 0 0 -40 c0 -45 -19 -98 -42 -117 -8 -7 -29 -16
-46 -19 -26 -5 -36 -1 -61 23 -34 35 -48 81 -53 176 l-4 67 253 0 253 0 0 111
c0 230 -62 375 -185 437 -81 40 -238 53 -340 28z m181 -181 c43 -18 61 -58 70
-154 l7 -71 -123 0 -123 0 5 74 c9 136 69 191 164 151z"/>
<path d="M1891 1450 c-135 -29 -220 -121 -257 -277 -25 -106 -15 -453 14 -544
53 -161 195 -240 404 -225 206 14 317 109 347 297 20 119 33 109 -134 109
l-145 0 0 -42 c-1 -50 -21 -111 -45 -138 -38 -42 -121 -33 -144 17 -36 79 -39
479 -4 551 22 45 62 66 109 57 46 -8 71 -50 80 -132 l6 -63 144 0 144 0 -6 58
c-13 127 -41 190 -110 250 -67 60 -138 84 -259 88 -55 2 -120 -1 -144 -6z"/>
<path d="M2765 1446 c-141 -35 -216 -119 -251 -281 -18 -83 -18 -381 1 -467
37 -177 119 -261 280 -289 136 -23 288 6 368 72 82 68 114 166 123 384 13 302
-36 467 -162 541 -87 51 -244 69 -359 40z m195 -204 c46 -46 53 -93 48 -332
-5 -231 -12 -271 -59 -304 -32 -22 -91 -20 -122 4 -46 36 -52 75 -52 330 0
205 2 239 17 267 38 69 117 86 168 35z"/>
<path d="M3608 1444 c-59 -18 -160 -108 -181 -162 -32 -80 -47 -189 -47 -342
0 -231 34 -364 115 -445 102 -101 255 -113 355 -28 l40 35 0 -196 0 -196 130
0 130 0 0 670 0 670 -125 0 -125 0 0 -41 0 -41 -40 35 c-67 57 -155 71 -252
41z m239 -195 c40 -39 48 -88 47 -309 -1 -220 -8 -271 -48 -317 -21 -24 -32
-28 -72 -27 -40 1 -52 6 -75 32 -36 41 -44 99 -44 337 0 162 3 197 19 238 13
36 27 53 50 63 40 18 93 11 123 -17z"/>
<path d="M4790 1450 c-69 -15 -166 -67 -199 -107 -59 -71 -76 -175 -45 -266
26 -76 85 -126 243 -206 171 -87 201 -114 201 -180 0 -37 -5 -52 -23 -69 -25
-24 -84 -30 -117 -12 -23 12 -40 61 -40 116 l0 44 -141 0 -141 0 4 -87 c9
-181 97 -259 314 -279 142 -13 281 31 353 112 49 56 71 118 71 203 0 137 -69
218 -276 322 -70 35 -140 76 -157 92 -26 24 -29 32 -24 70 10 74 82 103 132
52 20 -19 25 -34 25 -75 l0 -50 140 0 c138 0 140 0 141 23 4 87 -21 160 -73
214 -16 17 -58 44 -92 59 -50 22 -78 28 -156 30 -52 2 -115 -1 -140 -6z"/>
<path d="M5748 1446 c-51 -14 -72 -26 -105 -65 l-23 -26 0 43 0 42 -125 0
-125 0 0 -668 0 -668 130 1 130 0 0 193 c0 121 4 192 10 192 6 0 10 -4 10 -9
0 -18 79 -61 132 -72 106 -21 222 35 285 139 53 90 68 171 68 382 0 199 -10
269 -51 357 -59 124 -208 195 -336 159z m37 -180 c20 -9 41 -28 50 -47 22 -42
33 -176 28 -342 -6 -212 -27 -269 -102 -282 -58 -10 -95 13 -118 72 -15 41
-18 78 -18 268 0 153 4 231 13 256 18 52 52 80 105 88 4 0 23 -5 42 -13z"/>
<path d="M6494 1449 c-60 -14 -144 -68 -181 -117 -62 -81 -89 -234 -80 -452
14 -358 112 -475 397 -474 213 1 324 79 366 258 21 91 30 365 15 462 -19 126
-40 173 -101 234 -74 74 -124 92 -265 96 -60 2 -128 -1 -151 -7z m199 -199
c45 -36 52 -77 52 -305 0 -170 -4 -221 -18 -266 -20 -68 -33 -80 -92 -86 -39
-5 -47 -2 -73 24 -42 42 -53 110 -54 330 -1 204 7 259 47 299 31 31 101 33
138 4z"/>
<path d="M7500 1439 c-25 -11 -60 -34 -77 -52 l-33 -31 0 42 0 42 -130 0 -130
0 0 -510 0 -510 134 0 135 0 3 343 c3 321 4 344 23 376 26 44 76 69 153 77
l62 7 0 118 0 119 -47 0 c-27 0 -68 -10 -93 -21z"/>
<path d="M8234 933 l1 -508 130 0 130 0 1 508 0 507 -132 0 -131 0 1 -507z"/>
</g>
</svg>
