<?xml version="1.0" standalone="no"?>
<!DOCTYPE svg PUBLIC "-//W3C//DTD SVG 20010904//EN"
 "http://www.w3.org/TR/2001/REC-SVG-20010904/DTD/svg10.dtd">
<svg version="1.0" xmlns="http://www.w3.org/2000/svg"
 width="3840.000000pt" height="2160.000000pt" viewBox="0 0 3840.000000 2160.000000"
 preserveAspectRatio="xMidYMid meet">

<g transform="translate(0.000000,2160.000000) scale(0.100000,-0.100000)"
fill="#000000" stroke="none">
<path d="M0 10800 l0 -10800 19200 0 19200 0 0 4317 0 4317 -58 -80 c-32 -43
-116 -162 -187 -264 -70 -102 -151 -215 -178 -253 -60 -82 -159 -174 -197
-182 -25 -5 -30 -14 -45 -73 -53 -213 -196 -358 -366 -370 -116 -8 -211 31
-444 183 -65 43 -132 92 -147 109 -45 49 -70 129 -72 222 l-1 81 -85 44 c-125
65 -279 170 -330 225 -88 94 -116 186 -132 427 -22 327 23 666 154 1145 l41
153 -54 55 c-30 31 -74 68 -99 82 -40 24 -55 27 -125 26 -107 -2 -285 -43
-285 -66 0 -15 -187 -512 -221 -587 -39 -86 -70 -125 -132 -166 -78 -52 -157
-76 -272 -82 -123 -7 -193 9 -320 72 -116 57 -243 154 -339 257 -87 93 -126
165 -126 232 0 69 35 212 84 349 25 67 43 123 42 125 -2 1 -23 -2 -47 -7 -24
-6 -64 -11 -89 -11 -25 -1 -53 -5 -63 -8 -9 -4 -53 -71 -97 -150 -44 -78 -98
-170 -120 -203 l-40 -60 140 -279 c77 -154 140 -283 140 -286 0 -4 -56 69
-125 161 -139 185 -214 275 -231 275 -6 0 -24 -19 -40 -42 l-29 -43 -6 -320
c-4 -192 -12 -331 -18 -348 -6 -16 -26 -50 -43 -75 -37 -54 -194 -219 -252
-265 l-39 -31 25 40 c37 58 88 161 88 177 0 8 -9 25 -19 39 l-20 25 51 12 c61
16 115 62 140 119 21 47 42 222 54 442 l7 135 -84 -86 c-95 -97 -176 -143
-314 -181 -111 -30 -356 -33 -399 -5 -82 54 -303 704 -309 906 -2 63 0 69 46
138 33 49 115 137 252 270 113 108 216 214 230 234 14 21 58 120 99 219 41 99
86 200 100 225 32 54 95 107 161 135 38 16 246 70 271 70 2 0 21 15 41 34 52
46 313 218 653 430 157 98 295 184 307 192 21 13 21 14 -18 52 l-39 40 0 233
c0 278 11 398 44 477 28 70 165 319 282 513 46 78 84 148 84 158 0 19 -42 168
-64 230 -23 64 -54 101 -254 308 -99 103 -195 206 -213 228 -75 94 -120 246
-134 451 l-7 101 -131 7 c-160 8 -261 -4 -330 -38 -30 -15 -103 -74 -175 -141
-67 -64 -135 -120 -149 -126 -24 -9 -36 -4 -103 42 l-75 51 -30 -17 -30 -17
22 24 22 24 -61 47 c-103 78 -266 236 -366 352 -192 225 -325 465 -396 715
-69 248 -66 547 11 817 36 131 32 127 128 109 44 -8 222 -38 395 -66 173 -28
327 -53 341 -56 23 -4 29 1 62 70 116 234 329 484 545 638 179 128 424 233
635 272 77 15 93 15 136 2 106 -31 194 -92 242 -167 l30 -46 197 -6 c311 -9
624 -57 952 -147 311 -84 547 -180 592 -241 36 -48 62 -104 82 -179 47 -171
91 -284 107 -274 22 13 38 67 48 159 7 54 13 101 16 103 7 8 141 -96 184 -143
22 -24 41 -53 41 -63 0 -22 -79 -67 -180 -102 -36 -13 -68 -26 -73 -30 -4 -3
60 -136 143 -296 153 -296 218 -438 264 -579 35 -108 73 -279 88 -397 6 -54
15 -98 18 -98 3 0 62 67 129 150 68 83 125 150 126 150 2 0 -12 -42 -31 -92
-18 -51 -77 -223 -130 -383 l-97 -290 -14 -289 c-8 -158 -12 -290 -9 -293 3
-3 74 34 158 82 178 102 175 100 168 93 -9 -11 -207 -163 -272 -209 l-65 -47
-7 -173 c-3 -96 -9 -213 -13 -261 l-6 -86 74 -37 c107 -54 226 -133 292 -196
69 -65 99 -132 202 -455 36 -115 70 -220 75 -234 5 -14 9 1993 9 4488 l1 4512
-6485 0 -6485 0 -44 -40 c-120 -111 -108 -261 33 -408 63 -65 416 -350 502
-405 31 -20 68 -39 82 -42 41 -11 126 36 200 109 72 70 107 128 107 178 0 50
15 93 48 135 47 60 54 91 70 308 l8 100 8 -109 c14 -174 5 -229 -54 -359 -29
-62 -55 -127 -58 -146 -4 -26 -26 -56 -84 -116 -43 -45 -78 -86 -78 -92 0 -5
-20 -28 -45 -52 -44 -42 -54 -67 -36 -86 16 -17 60 -135 51 -135 -5 0 -19 13
-31 29 -12 16 -36 37 -55 47 l-33 18 -53 -36 c-29 -21 -54 -35 -56 -34 -2 2
13 36 32 76 20 40 36 77 36 84 -1 12 -273 216 -331 249 -34 18 -111 19 -166 2
-16 -5 -23 -3 -23 6 0 26 -79 175 -108 202 -36 35 -48 32 -138 -29 l-64 -44
33 67 c19 38 37 85 41 106 4 20 11 37 16 37 5 0 14 25 21 54 19 87 -4 109
-175 166 -48 16 -87 38 -130 74 -33 28 -73 59 -88 69 -26 16 -671 17 -12448
17 l-12420 0 0 -10800z m30544 9991 c22 -103 29 -109 79 -66 22 19 46 35 52
35 25 0 31 -170 18 -549 l-6 -204 -20 39 c-24 47 -38 57 -54 41 -16 -16 -39
-139 -53 -277 -6 -63 -15 -156 -20 -207 -6 -50 -10 -110 -10 -132 0 -22 -5
-43 -11 -47 -8 -5 -9 78 -5 302 3 170 9 338 12 374 4 50 2 70 -10 85 -16 20
-16 20 -39 -7 -12 -15 -37 -65 -56 -110 -69 -164 -154 -327 -199 -379 -51 -58
-60 -102 -27 -139 10 -11 16 -22 14 -25 -7 -6 -433 -145 -436 -141 -1 1 28 28
65 58 91 77 289 277 358 363 82 103 141 208 173 310 48 150 124 510 146 698 4
32 9 56 11 55 1 -2 10 -36 18 -77z m-8834 -336 c22 -230 29 -270 51 -270 11 0
103 111 161 195 11 17 7 -4 -13 -69 -49 -153 -60 -221 -44 -254 8 -16 11 -42
8 -62 -3 -21 -2 -35 5 -35 12 0 66 44 99 80 56 61 328 432 360 490 11 19 24
34 29 33 5 -2 12 -74 15 -160 6 -156 18 -228 44 -269 13 -20 17 -21 52 -9 21
7 60 23 86 34 27 12 50 21 52 21 2 0 3 -12 2 -27 -1 -18 3 -28 13 -30 8 -1 47
-5 85 -9 l70 -7 -105 -22 c-137 -28 -201 -57 -249 -111 -21 -24 -41 -44 -45
-44 -3 0 -6 31 -6 68 0 115 -37 223 -81 237 -34 11 -108 -43 -270 -199 -165
-160 -178 -179 -195 -294 -5 -33 -9 -40 -20 -31 -9 8 -16 5 -26 -13 -10 -18
-13 -85 -12 -283 0 -150 -3 -243 -7 -220 -21 109 -71 487 -84 634 -14 167 -27
247 -46 283 -7 14 -6 86 5 246 8 125 19 277 23 337 l7 110 8 -70 c4 -38 17
-164 28 -280z m14257 -414 c9 -11 93 -172 188 -358 246 -485 362 -682 476
-807 84 -92 269 -229 286 -212 3 3 -3 27 -15 53 -20 47 -42 147 -42 187 0 12
22 -28 49 -89 54 -124 102 -224 134 -274 20 -33 20 -34 1 -26 -63 26 -125 47
-129 44 -2 -3 7 -35 20 -72 14 -37 25 -83 25 -101 0 -19 -29 -116 -65 -217
-36 -100 -65 -184 -65 -186 0 -2 -4 -3 -10 -3 -5 0 -10 10 -10 23 0 12 -4 29
-10 37 -7 11 -21 -11 -56 -88 -26 -56 -49 -100 -52 -98 -7 8 76 356 88 370 5
4 21 -11 36 -34 27 -41 28 -42 35 -18 3 13 12 70 19 126 l12 102 -40 53 c-21
28 -87 107 -145 175 -58 67 -154 193 -213 280 -100 147 -151 217 -360 498 -93
125 -153 184 -187 184 -28 0 -60 -32 -80 -79 -14 -33 -15 -34 -26 -13 -20 37
-45 26 -96 -40 -61 -79 -70 -89 -60 -63 82 217 148 443 164 560 8 52 16 75 32
88 28 23 75 22 96 -2z m-4454 -348 c-28 -66 -43 -136 -43 -200 0 -66 -14 -138
-58 -298 -15 -55 -28 -91 -30 -81 -4 20 15 223 25 264 3 14 1 22 -8 22 -15 0
-118 -84 -277 -224 l-113 -100 -26 -86 c-14 -48 -34 -98 -43 -110 -17 -23 -19
-23 -43 -7 -22 14 -107 143 -107 162 0 3 26 -14 58 -39 32 -25 63 -46 69 -46
7 0 14 32 19 79 l6 80 54 35 c111 74 276 251 453 489 41 53 75 97 77 97 2 0
-4 -17 -13 -37z m21 -395 c-3 -18 -31 -145 -61 -283 -51 -234 -96 -394 -129
-457 -34 -67 -94 -288 -94 -350 0 -33 3 -38 24 -38 13 0 38 -3 56 -6 30 -7 31
-8 25 -43 -22 -124 -70 -237 -140 -332 -55 -74 -92 -152 -106 -221 -28 -136
-246 -483 -429 -680 -34 -38 -66 -68 -71 -68 -5 0 22 42 59 93 108 145 235
334 292 432 104 181 113 240 47 312 -17 19 -19 31 -13 77 5 44 3 58 -11 71
-36 37 -175 -10 -291 -97 -35 -27 -65 -48 -67 -48 -3 0 27 49 65 110 79 123
252 404 343 555 32 55 74 123 92 150 101 154 344 658 395 818 14 46 21 48 14
5z m-5104 -129 c130 -21 271 -99 382 -212 107 -108 139 -218 104 -353 -22 -86
-22 -87 25 -63 84 42 179 160 179 221 0 55 61 -27 90 -120 28 -90 34 -201 17
-297 -8 -44 -13 -82 -11 -84 1 -1 34 28 72 66 48 49 79 90 103 141 19 39 37
71 41 71 14 2 47 -77 54 -128 4 -31 11 -50 18 -48 20 6 86 130 110 207 30 94
48 220 41 280 -8 60 -36 181 -46 202 -33 63 92 89 189 39 46 -24 79 -59 128
-136 20 -32 64 -87 97 -121 78 -82 102 -119 122 -189 15 -50 16 -68 5 -134 -9
-61 -80 -296 -115 -383 -6 -15 -3 -17 22 -12 28 6 31 3 65 -73 82 -179 120
-348 121 -528 0 -163 -18 -252 -79 -392 -45 -104 -60 -133 -182 -343 -249
-428 -590 -827 -872 -1022 l-25 -17 25 0 c55 -1 166 21 220 42 75 31 228 149
366 284 292 284 538 623 731 1006 45 90 57 107 77 107 47 0 182 -32 237 -56
49 -22 59 -31 83 -82 16 -31 42 -95 57 -141 l29 -85 -42 -70 c-24 -38 -52 -84
-63 -102 -11 -18 -63 -104 -117 -191 -53 -87 -117 -192 -143 -233 l-47 -75 7
-150 c4 -82 8 -166 8 -186 1 -46 -40 -115 -175 -294 -54 -71 -100 -143 -103
-160 -4 -21 6 -62 36 -140 52 -136 79 -230 79 -272 0 -43 -50 -104 -245 -298
-214 -214 -444 -410 -657 -564 -49 -34 -88 -65 -88 -69 1 -4 7 -18 15 -32 8
-14 14 -35 15 -48 0 -22 38 -138 77 -236 l20 -49 21 69 c23 75 73 158 146 242
25 29 78 99 118 155 71 99 253 298 292 319 21 11 -16 -40 -80 -113 -23 -27
-34 -51 -39 -90 -4 -29 -22 -80 -40 -113 -18 -34 -50 -107 -70 -162 l-37 -101
-57 -17 c-70 -20 -148 -77 -167 -121 -9 -23 -16 -100 -20 -250 -4 -119 -11
-218 -16 -221 -4 -3 -8 4 -8 15 0 33 -65 220 -126 362 -31 74 -63 163 -71 198
-7 35 -22 84 -33 108 l-19 44 -40 -26 c-23 -14 -45 -25 -51 -25 -5 0 -10 -10
-10 -21 0 -16 -3 -19 -12 -11 -9 7 -29 3 -67 -14 l-54 -24 6 -63 c6 -69 67
-261 141 -451 40 -100 46 -128 44 -175 -3 -54 -4 -56 -29 -53 -80 8 -338 133
-474 231 -74 52 -190 167 -246 242 -63 85 -113 191 -106 226 3 14 -3 51 -13
82 -53 169 -112 357 -137 439 l-28 94 -135 109 c-240 193 -226 175 -307 394
-144 388 -154 433 -157 700 l-3 209 -139 42 c-172 51 -252 82 -355 135 -133
70 -189 147 -374 520 -59 119 -127 243 -151 275 -24 33 -118 138 -207 234
-212 226 -317 346 -346 393 -31 51 -26 105 30 292 65 218 108 387 109 423 0
17 4 32 8 32 4 0 25 -22 45 -48 51 -67 136 -146 183 -170 34 -17 65 -20 244
-25 166 -4 220 -9 285 -26 91 -24 207 -77 262 -118 l37 -28 -24 35 c-51 74
-122 149 -177 186 -32 21 -60 40 -63 42 -2 2 2 7 10 12 27 17 171 11 250 -10
84 -23 265 -109 311 -147 41 -35 37 -14 -17 86 -63 116 -124 202 -208 290 -94
97 -153 142 -321 241 -223 132 -314 198 -350 253 -21 33 -12 34 42 3 77 -44
163 -68 263 -73 92 -5 124 -1 275 31 153 34 327 30 485 -9 22 -6 20 -2 -15 29
-61 55 -229 167 -335 225 l-95 51 51 0 c111 0 265 22 394 57 207 55 320 47
459 -34 63 -36 190 -143 240 -200 36 -42 40 -45 41 -25 1 64 -69 275 -111 333
-29 42 -17 46 91 28z m-4643 -51 c-3 -8 -6 -5 -6 6 -1 11 2 17 5 13 3 -3 4
-12 1 -19z m13568 -139 c-96 -457 -116 -561 -112 -565 2 -3 26 0 51 7 26 6 48
10 50 8 4 -4 -27 -38 -250 -273 -105 -110 -111 -115 -88 -70 56 116 20 111
-111 -16 -92 -88 -125 -113 -125 -95 0 3 33 45 73 93 145 173 276 349 350 466
43 71 64 135 108 336 31 144 69 265 76 244 2 -6 -8 -67 -22 -135z m-13790
-350 c141 -44 186 -70 284 -162 47 -45 123 -108 168 -139 91 -64 111 -85 70
-74 -15 3 -54 9 -87 13 -73 7 -78 -1 -60 -90 20 -95 114 -319 155 -367 7 -8
20 -42 30 -75 9 -32 32 -90 50 -127 19 -37 32 -68 29 -68 -20 0 -161 263 -258
484 -22 48 -50 105 -64 124 -13 20 -42 70 -63 111 -89 169 -228 325 -344 385
-45 24 -20 19 90 -15z m11274 -83 c221 -30 422 -74 716 -155 281 -77 518 -165
539 -200 7 -11 -200 -163 -424 -311 -166 -110 -337 -200 -379 -200 -25 0 -190
24 -376 54 -49 8 -190 29 -313 47 -211 30 -223 31 -241 15 -23 -21 -144 -255
-199 -386 -212 -504 -296 -947 -248 -1310 62 -466 334 -979 746 -1412 l122
-128 -174 0 -175 0 -54 58 c-290 306 -517 640 -642 942 -84 205 -117 349 -124
555 -12 331 41 739 151 1158 l44 169 -26 -24 c-15 -12 -58 -53 -97 -90 -83
-79 -119 -108 -134 -108 -13 0 -14 -6 4 59 16 61 14 71 -15 64 -28 -7 -195
-176 -292 -294 -44 -55 -83 -99 -85 -99 -5 0 -7 -3 52 95 56 93 95 177 95 205
0 42 -51 16 -203 -107 -42 -35 -80 -63 -83 -63 -4 0 32 40 79 89 188 198 329
373 397 494 27 48 31 64 26 100 -3 23 -8 87 -12 142 -10 164 8 201 160 320
232 180 453 290 666 330 92 18 332 13 499 -9z m-2156 -81 c35 -17 63 -51 69
-80 2 -16 -14 -25 -89 -53 -89 -33 -92 -35 -111 -80 -101 -235 -184 -1067
-137 -1382 46 -318 196 -799 358 -1155 77 -169 100 -252 101 -355 2 -146 -30
-195 -193 -305 -111 -75 -136 -94 -130 -98 2 -1 20 -10 39 -19 90 -40 253
-197 265 -252 38 -189 82 -397 106 -499 17 -71 28 -134 27 -139 -4 -12 -158
345 -207 480 -17 46 -31 94 -31 108 0 47 -75 164 -106 164 -7 0 -33 -10 -58
-21 l-44 -22 -28 32 c-38 43 -94 51 -155 24 -24 -11 -186 -125 -359 -254 -641
-478 -679 -501 -766 -464 -53 22 -184 158 -251 262 -74 113 -167 326 -243 552
l-60 180 44 63 c203 294 476 851 476 970 0 16 9 29 26 38 57 31 155 173 217
315 105 242 211 655 224 875 4 80 1 126 -12 193 l-17 89 34 36 c50 54 93 111
199 262 96 136 237 348 258 388 7 12 20 22 29 22 42 0 191 45 240 73 109 61
223 82 285 52z m3822 -379 c28 -13 64 -39 81 -57 35 -39 94 -123 94 -136 0 -4
-40 -18 -90 -30 -286 -69 -598 -311 -893 -691 -72 -93 -82 -103 -106 -98 -14
3 -183 26 -376 50 -192 25 -392 50 -444 57 -88 12 -94 12 -107 -6 -23 -31
-110 -264 -132 -355 -50 -198 -57 -264 -57 -505 1 -210 3 -241 28 -356 66
-314 192 -584 400 -859 83 -110 295 -330 415 -433 46 -38 79 -73 75 -78 -4 -4
-64 -11 -132 -15 l-124 -7 -141 144 c-418 425 -675 804 -772 1139 -68 234 -44
647 61 1045 56 213 144 460 198 553 l19 32 86 0 c88 0 277 -10 627 -35 l190
-13 115 112 c201 195 397 339 603 443 117 58 277 122 312 122 11 1 43 -10 70
-23z m-10480 -2041 c38 -22 91 -49 118 -61 l49 -21 -38 -6 c-22 -4 -51 -7 -66
-7 -47 0 -128 -21 -144 -38 -21 -21 -14 -71 36 -272 57 -225 73 -330 65 -422
-3 -42 -1 -123 5 -180 10 -96 62 -375 76 -412 3 -9 3 -16 0 -16 -22 0 -96 282
-150 570 -20 107 -43 231 -51 275 -11 57 -21 85 -36 98 -26 21 -72 22 -90 1
-14 -17 -93 -60 -88 -47 2 4 18 35 36 69 55 105 88 272 100 496 l6 128 52 -58
c29 -31 83 -75 120 -97z m999 -428 c71 -30 192 -123 257 -198 59 -67 131 -173
169 -249 27 -55 18 -46 -45 44 -64 92 -102 134 -138 152 -45 24 -61 2 -67 -92
l-5 -75 -130 217 c-71 119 -132 221 -134 226 -4 12 24 4 93 -25z m1027 -1404
c0 -32 2 -76 4 -98 3 -22 9 -121 15 -220 16 -269 13 -255 87 -335 76 -82 78
-89 88 -367 6 -168 9 -189 35 -257 78 -201 166 -331 277 -408 78 -53 290 -133
503 -188 97 -25 103 -28 78 -38 -59 -24 -266 -131 -321 -166 -31 -20 -81 -56
-111 -81 l-54 -44 -78 30 c-135 52 -255 120 -309 174 -55 55 -109 144 -208
339 -36 72 -67 123 -71 117 -4 -6 -10 -86 -13 -176 -3 -91 -9 -165 -13 -165
-19 0 -50 44 -50 71 0 21 -8 37 -25 51 -46 36 -132 346 -176 629 -91 595 16
1102 247 1173 89 27 94 25 95 -41z m5421 -284 c90 -36 571 -208 613 -219 31
-9 183 -62 295 -103 41 -16 135 -34 255 -51 105 -14 220 -31 257 -36 94 -14
144 -12 179 6 17 8 33 14 35 11 10 -9 -66 -99 -166 -197 -122 -121 -220 -227
-262 -284 -23 -33 -28 -49 -28 -100 0 -91 7 -109 39 -102 14 4 54 9 88 13 l62
6 -20 -74 c-11 -40 -21 -97 -22 -126 -2 -47 1 -55 33 -88 33 -34 35 -41 35
-99 0 -54 -7 -76 -44 -150 -23 -48 -44 -86 -46 -84 -2 2 3 32 12 68 8 37 13
94 11 131 -4 84 -24 110 -168 230 -114 95 -160 151 -160 198 0 102 138 305
296 432 35 29 61 56 57 60 -26 23 -299 38 -377 19 -39 -9 -41 -8 -114 56 -146
128 -296 214 -544 313 -207 82 -358 152 -377 175 -18 22 -3 20 61 -5z m-2074
-1603 c54 -47 123 -207 106 -250 -3 -9 -15 -16 -26 -16 -49 0 -138 151 -138
232 0 66 11 72 58 34z m-2990 -480 c68 -54 121 -103 119 -110 -2 -6 -12 -35
-21 -63 -10 -29 -22 -53 -27 -53 -33 0 -134 70 -260 182 -70 62 -94 70 -104
38 -9 -30 -19 -25 -70 33 l-46 52 6 60 c3 33 13 91 22 128 l15 68 121 -118
c67 -65 177 -162 245 -217z m-3313 -193 c228 -207 378 -320 675 -506 336 -210
443 -247 718 -247 176 0 377 29 369 53 -2 6 -34 19 -73 28 -102 26 -124 36
-124 58 0 25 16 33 105 56 96 24 227 88 259 126 14 17 26 41 26 54 0 35 -45
82 -109 115 l-56 29 45 0 c25 0 152 8 282 18 269 19 335 14 464 -37 75 -30
238 -122 250 -142 5 -7 2 -9 -7 -5 -111 46 -148 58 -220 74 -116 25 -316 25
-380 0 -69 -26 -92 -56 -87 -109 3 -24 8 -51 12 -61 7 -15 5 -16 -19 -7 -37
14 -88 12 -110 -4 -18 -13 -18 -14 4 -49 12 -20 48 -60 79 -88 31 -28 48 -49
37 -45 -124 36 -453 101 -462 92 -10 -10 8 -25 45 -36 61 -20 132 -52 132 -60
0 -35 -580 -160 -751 -161 -89 -1 -105 6 -204 86 -81 65 -422 288 -709 464
-218 134 -267 161 -291 161 -25 0 -45 -63 -46 -146 -1 -41 -3 -74 -5 -71 -4 3
-101 446 -130 592 l-6 30 33 -31 c19 -17 133 -121 254 -231z m6271 175 c61
-73 102 -210 71 -237 -56 -46 -197 225 -145 277 15 15 38 2 74 -40z m-3120
-211 c21 -18 74 -57 117 -86 42 -30 77 -55 77 -57 0 -1 -5 -15 -11 -31 -20
-54 -101 -340 -144 -513 -86 -345 -120 -557 -113 -713 3 -87 6 -97 47 -172 43
-78 150 -244 192 -296 l20 -25 -29 -115 c-26 -100 -46 -197 -67 -332 -4 -26
-13 -41 -28 -47 -12 -5 -112 -43 -222 -84 -682 -253 -1455 -605 -1744 -795
-104 -69 -125 -80 -139 -69 -33 27 -109 138 -122 177 -12 37 -11 47 14 124 49
149 269 574 359 694 42 55 128 111 295 190 218 104 352 155 389 148 29 -5 35
-1 90 67 155 190 179 244 388 853 187 543 196 565 293 669 23 25 44 46 46 46
2 0 32 19 68 43 35 23 88 53 116 66 l52 24 -7 87 c-6 88 2 180 16 180 4 0 25
-15 47 -33z m-3433 -1789 c9 -40 34 -161 57 -268 131 -620 244 -1060 299
-1167 34 -67 56 -56 87 45 15 52 53 323 56 405 3 89 15 -258 17 -474 0 -114 4
-220 7 -235 5 -25 24 -41 122 -99 64 -38 272 -162 462 -275 190 -114 435 -260
545 -325 110 -65 205 -122 210 -127 24 -22 -687 295 -928 414 -65 32 -120 58
-124 58 -3 0 -87 43 -187 96 -213 114 -331 189 -377 241 -44 51 -102 179 -127
283 -42 171 -72 471 -72 723 0 89 -3 109 -16 114 -10 4 -24 -4 -39 -23 -43
-54 -144 -221 -251 -419 -59 -107 -108 -194 -110 -193 -1 2 29 118 67 258 38
140 112 415 165 610 101 376 116 430 120 430 1 0 9 -33 17 -72z m8627 -223
c195 -30 404 -74 624 -129 193 -49 428 -117 423 -123 -2 -2 -64 6 -137 17 -73
10 -208 25 -301 32 -188 13 -277 4 -313 -32 -19 -19 -19 -21 -3 -54 9 -19 51
-63 93 -98 124 -101 181 -157 199 -194 23 -49 13 -65 -12 -21 -28 47 -117 116
-226 173 -98 52 -143 96 -153 149 -9 49 1 77 38 114 17 17 30 32 27 34 -2 2
-35 16 -74 30 -211 77 -329 101 -468 95 -89 -4 -111 -9 -177 -38 -111 -50
-255 -140 -396 -246 -86 -64 -124 -88 -120 -74 3 11 8 29 12 40 9 35 -22 78
-67 90 -50 14 -175 -8 -292 -50 -44 -17 -82 -28 -84 -27 -6 6 229 115 352 163
198 77 365 124 580 163 101 18 312 12 475 -14z m-3911 -75 c93 -53 126 -77
116 -82 -24 -14 -203 -55 -320 -74 -73 -12 -166 -18 -277 -19 -143 0 -168 -2
-168 -15 0 -25 13 -38 45 -46 20 -5 71 -49 150 -129 134 -135 160 -159 292
-262 176 -138 374 -263 608 -383 66 -34 111 -58 100 -55 -17 6 -182 68 -510
192 -49 19 -102 38 -117 43 -57 18 -95 51 -306 265 -263 266 -392 420 -392
469 0 17 5 18 51 12 105 -14 377 -26 459 -20 175 13 221 68 136 163 -28 32
-19 28 133 -59z m-4932 -3151 c93 -45 105 -163 24 -230 -46 -38 -111 -40 -162
-6 -47 31 -61 62 -56 125 4 58 30 95 82 118 42 18 62 17 112 -7z m-37 -995
c39 -24 60 -65 60 -121 0 -70 -33 -114 -101 -133 -51 -14 -96 -2 -134 36 -59
59 -59 140 1 199 31 32 40 35 90 35 34 0 67 -6 84 -16z"/>
<path d="M26311 15543 c-39 -21 -67 -79 -57 -119 4 -15 20 -39 36 -55 79 -80
212 16 171 123 -21 55 -95 80 -150 51z"/>
<path d="M25861 15372 c-16 -30 -14 -134 3 -158 14 -18 15 -18 26 11 14 35 9
140 -7 156 -8 8 -14 5 -22 -9z"/>
<path d="M26434 15068 c-46 -42 -46 -43 -42 -97 4 -47 10 -59 39 -84 30 -25
40 -28 78 -23 24 3 58 14 75 24 73 43 65 162 -15 202 -58 30 -83 26 -135 -22z"/>
<path d="M25922 14918 c-25 -25 -10 -129 22 -150 37 -24 49 75 16 130 -22 36
-22 36 -38 20z"/>
<path d="M26853 14490 c-59 -24 -74 -116 -27 -164 55 -54 156 -24 170 50 16
84 -62 146 -143 114z"/>
<path d="M31536 17669 c-3 -15 -8 -76 -12 -135 -6 -89 -5 -106 7 -102 14 4
169 196 169 209 0 4 -20 10 -44 13 -24 4 -59 15 -79 25 l-35 18 -6 -28z"/>
<path d="M38333 12002 c-34 -53 -98 -145 -142 -204 l-80 -108 30 -29 c20 -20
29 -40 30 -63 6 -246 15 -334 38 -378 32 -62 104 -166 151 -220 l39 -45 1 573
c0 314 -1 572 -2 572 -2 0 -31 -44 -65 -98z"/>
<path d="M34000 9780 c0 -5 5 -10 11 -10 5 0 7 5 4 10 -3 6 -8 10 -11 10 -2 0
-4 -4 -4 -10z"/>
</g>
</svg>
