<?xml version="1.0" standalone="no"?>
<!DOCTYPE svg PUBLIC "-//W3C//DTD SVG 20010904//EN"
 "http://www.w3.org/TR/2001/REC-SVG-20010904/DTD/svg10.dtd">
<svg version="1.0" xmlns="http://www.w3.org/2000/svg"
 width="920.000000pt" height="512.000000pt" viewBox="0 0 920.000000 512.000000"
 preserveAspectRatio="xMidYMid meet">

<g transform="translate(0.000000,512.000000) scale(0.100000,-0.100000)"
fill="#000000" stroke="none">
<path d="M7092 4138 c-12 -47 -113 -238 -172 -326 -116 -174 -304 -349 -510
-476 -118 -74 -309 -168 -567 -282 -421 -185 -629 -305 -787 -454 -226 -215
-338 -465 -338 -756 0 -280 104 -549 321 -829 69 -89 74 -94 57 -59 -69 143
-153 404 -180 561 -20 112 -20 300 -1 395 8 41 35 115 62 168 39 80 60 108
133 180 147 145 304 224 732 369 411 140 545 201 705 320 282 209 457 547 528
1016 9 61 20 129 25 153 8 43 3 59 -8 20z"/>
<path d="M2085 4100 c11 -103 46 -285 75 -395 96 -364 270 -624 530 -797 153
-101 270 -151 645 -278 353 -119 460 -166 612 -266 162 -107 282 -278 319
-454 26 -121 14 -351 -24 -505 -34 -135 -76 -258 -132 -388 -21 -48 -37 -87
-35 -87 5 0 114 147 159 214 168 254 252 544 227 787 -27 255 -123 452 -310
640 -173 173 -355 281 -826 489 -504 222 -713 353 -920 572 -124 132 -223 286
-302 468 l-24 55 6 -55z"/>
<path d="M4425 3874 c-589 -30 -960 -170 -844 -318 29 -37 166 -99 284 -129
368 -94 988 -101 1381 -16 173 37 315 96 355 147 97 124 -156 246 -616 297
-128 14 -442 25 -560 19z m470 -49 c321 -32 505 -87 505 -151 0 -116 -601
-196 -1120 -149 -254 23 -422 61 -473 109 -33 31 -34 46 -4 74 61 57 280 106
537 119 69 3 127 7 128 9 6 4 361 -5 427 -11z"/>
<path d="M2231 3113 c-2 -34 33 -261 54 -348 96 -401 277 -619 587 -705 93
-26 265 -47 443 -55 415 -18 570 -60 701 -191 60 -60 144 -202 144 -245 0 -10
4 -20 8 -23 12 -7 4 81 -18 193 -34 170 -120 315 -243 407 -136 102 -266 151
-655 249 -462 116 -618 185 -786 344 -97 94 -171 207 -217 336 -10 28 -18 45
-18 38z"/>
<path d="M6930 3078 c-33 -112 -118 -244 -216 -339 -170 -162 -308 -222 -804
-349 -307 -79 -410 -113 -530 -176 -214 -112 -339 -308 -365 -569 -4 -38 -9
-78 -12 -89 -3 -12 -1 -16 6 -12 6 4 11 15 11 25 0 10 19 56 41 101 87 173
240 274 469 309 36 6 180 17 320 25 279 17 408 35 515 73 289 103 462 341 544
748 21 102 44 285 38 291 -2 2 -10 -15 -17 -38z"/>
<path d="M3122 1804 c96 -123 206 -207 313 -240 28 -8 115 -24 195 -34 168
-23 196 -30 255 -65 74 -43 132 -127 182 -265 l24 -65 -5 125 c-8 192 -45 306
-130 391 -91 92 -202 130 -454 154 -177 17 -361 40 -401 52 -22 6 -20 0 21
-53z"/>
<path d="M5970 1840 c-58 -10 -184 -25 -281 -34 -259 -24 -373 -61 -465 -154
-84 -83 -123 -203 -130 -392 l-4 -125 23 65 c51 139 108 222 182 265 59 35 87
42 256 64 212 28 301 64 408 165 65 61 147 167 129 165 -7 -1 -60 -10 -118
-19z"/>
</g>
</svg>
